<?xml version="1.0" encoding="UTF-8"?>
<svg id="Layer_2" data-name="Layer 2" xmlns="http://www.w3.org/2000/svg" viewBox="0 0 88.87 88.87">
  <defs>
    <style>
      .cls-1 {
        fill: none;
        stroke: #00008b;
        stroke-miterlimit: 10;
      }
    </style>
  </defs>
  <g id="Layer_1-2" data-name="Layer 1">
    <path class="cls-1" d="M32.05,31.29c-.79-1.53-1.32-3.23-1.5-5.02-.04-.47-.07-.94-.07-1.41,0-7.7,6.26-13.96,13.97-13.96s13.96,6.26,13.96,13.96c0,.48-.03.96-.07,1.43h0c-1.97.26-3.82.93-5.44,1.93"/>
    <path class="cls-1" d="M52.9,28.21c1.62-1,3.46-1.67,5.44-1.92h0c.6-.09,1.22-.13,1.84-.13,7.71,0,13.96,6.26,13.96,13.96s-6.25,13.97-13.96,13.97c-3.46,0-6.64-1.27-9.08-3.36-2.12,1.3-4.62,2.05-7.29,2.05-2.34,0-4.53-.57-6.47-1.59-2.35,1.82-5.31,2.9-8.51,2.9-7.71,0-13.96-6.26-13.96-13.97s6.25-13.96,13.96-13.96c.58,0,1.15.03,1.71.1.18,1.79.71,3.49,1.5,5.02"/>
    <polyline class="cls-1" points="40.55 52.4 38.09 79.01 50.91 79.01 48.33 52.03"/>
    <circle class="cls-1" cx="44.44" cy="44.44" r="43.94"/>
  </g>
</svg>